<svg width="196" height="125" viewBox="0 0 196 125" fill="none" xmlns="http://www.w3.org/2000/svg">
<g clip-path="url(#clip0)">
<path fill-rule="evenodd" clip-rule="evenodd" d="M195.56 51.81C195.56 31.96 182.84 18.4 166.31 20.43C153 22.06 144 36.12 126.85 36.12C109.7 36.12 89.61 1.85999 57.28 0.0599901C36.61 -1.09001 0.269955 13.71 -4.45151e-05 57.76C-0.270045 102.1 24.89 127.32 57.28 124.76C89.28 122.26 109.01 92.21 122.06 87.1C136.7 81.37 148.15 92.19 166.94 89.8C184 87.67 195.56 71.66 195.56 51.81Z" fill="#bebebe"/>
<path d="M126.84 50.49H121.84V30.6C121.716 24.6792 119.276 19.0429 115.045 14.8995C110.814 10.7562 105.127 8.43579 99.2051 8.43579C93.283 8.43579 87.5966 10.7562 83.3653 14.8995C79.1339 19.0429 76.6945 24.6792 76.5701 30.6V50.49H71.5701V30.6C71.5701 23.28 74.4779 16.2599 79.6539 11.0839C84.8299 5.90785 91.8501 3 99.1701 3C106.49 3 113.51 5.90785 118.686 11.0839C123.862 16.2599 126.77 23.28 126.77 30.6L126.84 50.49Z" fill="#eb8361"/>
<path d="M132.45 43.9H66.26C64.0647 43.9132 61.9639 44.7946 60.4162 46.3515C58.8686 47.9085 58 50.0147 58 52.21V89.29C58 91.4922 58.8741 93.6044 60.4304 95.1625C61.9867 96.7207 64.0978 97.5973 66.3 97.6H132.49C133.581 97.6 134.662 97.3851 135.67 96.9674C136.678 96.5498 137.594 95.9377 138.366 95.166C139.138 94.3944 139.75 93.4783 140.167 92.4701C140.585 91.4619 140.8 90.3813 140.8 89.29V52.21C140.8 51.1153 140.584 50.0315 140.164 49.0206C139.744 48.0098 139.128 47.0919 138.352 46.3198C137.576 45.5476 136.655 44.9363 135.642 44.521C134.63 44.1058 133.545 43.8947 132.45 43.9V43.9Z" fill="url(#paint0_linear)"/>
<path d="M138.2 104.88C141.644 104.882 145.011 103.863 147.875 101.951C150.74 100.039 152.973 97.3205 154.292 94.1394C155.611 90.9583 155.957 87.4574 155.287 84.0796C154.616 80.7017 152.959 77.5986 150.524 75.1628C148.09 72.7269 144.988 71.0678 141.61 70.3952C138.233 69.7226 134.732 70.0668 131.55 71.3842C128.368 72.7017 125.648 74.9332 123.735 77.7964C121.821 80.6597 120.8 84.0261 120.8 87.4699C120.799 89.7558 121.248 92.0195 122.122 94.1317C122.996 96.2439 124.277 98.1633 125.893 99.7801C127.509 101.397 129.427 102.679 131.539 103.554C133.651 104.43 135.914 104.88 138.2 104.88Z" fill="#eb8361"/>
<path d="M136.16 94.64C135.831 94.6385 135.515 94.5095 135.28 94.28L130.45 89.44C130.218 89.2067 130.088 88.8906 130.089 88.5615C130.09 88.2324 130.221 87.9171 130.455 87.685C130.688 87.453 131.004 87.3231 131.333 87.3241C131.663 87.325 131.978 87.4567 132.21 87.69L136.16 91.69L146.07 81.78C146.185 81.6645 146.323 81.5728 146.474 81.5103C146.625 81.4477 146.786 81.4155 146.95 81.4155C147.113 81.4155 147.275 81.4477 147.426 81.5103C147.577 81.5728 147.714 81.6645 147.83 81.78C147.945 81.8956 148.037 82.0328 148.1 82.1838C148.162 82.3348 148.194 82.4966 148.194 82.66C148.194 82.8235 148.162 82.9853 148.1 83.1363C148.037 83.2873 147.945 83.4245 147.83 83.54L137 94.28C136.775 94.5018 136.475 94.6304 136.16 94.64V94.64Z" fill="white"/>
</g>
<defs>
<linearGradient id="paint0_linear" x1="105.5" y1="29" x2="90.2769" y2="86.3079" gradientUnits="userSpaceOnUse">
<stop offset="1" stop-color="#f15a29"/>
</linearGradient>
<clipPath id="clip0">
<rect width="195.56" height="124.97" fill="white"/>
</clipPath>
</defs>
</svg>
