<svg width="92" height="92" viewBox="0 0 92 92" fill="none" xmlns="http://www.w3.org/2000/svg">
<path d="M9.46021 44.7915C10.2143 40.0231 11.9438 35.4612 14.5408 31.3908C17.1377 27.3203 20.5464 23.8287 24.554 21.1338" stroke="#f15a29" stroke-width="3.5" stroke-miterlimit="10" stroke-linecap="round"/>
<path d="M82.5591 44.7915C81.804 40.0246 80.075 35.4641 77.48 31.394C74.8849 27.3239 71.4792 23.8313 67.4751 21.1338" stroke="#f15a29" stroke-width="3.5" stroke-miterlimit="10" stroke-linecap="round"/>
<path d="M60.0544 82.8651C55.6003 84.7348 50.8088 85.6687 45.9782 85.6086C41.1475 85.5484 36.3808 84.4956 31.9746 82.5156" stroke="#f15a29" stroke-width="3.5" stroke-miterlimit="10" stroke-linecap="round"/>
<path d="M46 28.9872C54.0089 28.9872 60.5013 22.4982 60.5013 14.4936C60.5013 6.48901 54.0089 0 46 0C37.9912 0 31.4988 6.48901 31.4988 14.4936C31.4988 22.4982 37.9912 28.9872 46 28.9872Z" fill="url(#paint0_linear)"/>
<path d="M14.5013 81.176C22.5101 81.176 29.0025 74.6869 29.0025 66.6823C29.0025 58.6777 22.5101 52.1887 14.5013 52.1887C6.49244 52.1887 0 58.6777 0 66.6823C0 74.6869 6.49244 81.176 14.5013 81.176Z" fill="url(#paint1_linear)"/>
<path d="M77.4986 81.176C85.5074 81.176 91.9998 74.6869 91.9998 66.6823C91.9998 58.6777 85.5074 52.1887 77.4986 52.1887C69.4898 52.1887 62.9973 58.6777 62.9973 66.6823C62.9973 74.6869 69.4898 81.176 77.4986 81.176Z" fill="url(#paint2_linear)"/>
<path d="M5 39.5L9 45.5L16 42.5" stroke="#f15a29" stroke-width="3.5" stroke-linecap="round" stroke-linejoin="round"/>
<path d="M56.5 89.9999L60.5 82.4999L53.4885 79.0596" stroke="#f15a29" stroke-width="3.5" stroke-linecap="round" stroke-linejoin="round"/>
<path d="M74.614 19.7939L67 19.9999V27.4999" stroke="#f15a29" stroke-width="3.5" stroke-linecap="round" stroke-linejoin="round"/>
<defs>
<linearGradient id="paint0_linear" x1="46" y1="0" x2="46" y2="28.9872" gradientUnits="userSpaceOnUse">
<stop offset="1" stop-color="#f15a29"/>
</linearGradient>
<linearGradient id="paint1_linear" x1="14.5013" y1="52.1887" x2="14.5013" y2="81.176" gradientUnits="userSpaceOnUse">
<stop offset="1" stop-color="#f15a29"/>
</linearGradient>
<linearGradient id="paint2_linear" x1="77.4986" y1="52.1887" x2="77.4986" y2="81.176" gradientUnits="userSpaceOnUse">
<stop offset="1" stop-color="#f15a29"/>
</linearGradient>
</defs>
</svg>
