<svg width="196" height="109" viewBox="0 0 196 109" fill="none" xmlns="http://www.w3.org/2000/svg">
<g clip-path="url(#clip0)">
<path fill-rule="evenodd" clip-rule="evenodd" d="M34.34 17.39C12.22 18.68 -1.44995 40 0.120051 66.84C1.69005 93.68 22.52 107.84 39.01 106.91C55.5 105.98 71.4601 96.11 84.8701 95.33C98.2801 94.55 117.68 110.58 150.69 108.64C183.7 106.7 196.81 72.23 195.5 49.83C194.19 27.43 177.42 -1.79003 145.34 0.0899739C113.26 1.96997 101.34 21.49 86.7001 22.34C72.0601 23.19 56.4501 16.09 34.34 17.39Z" fill="#bebebe"/>
<path d="M59.66 49.49C62.3305 49.49 64.941 48.698 67.1613 47.2141C69.3816 45.7303 71.1119 43.6213 72.1334 41.1539C73.1549 38.6865 73.4216 35.9716 72.8999 33.3526C72.3782 30.7336 71.0914 28.3281 69.2024 26.4405C67.3134 24.5529 64.907 23.2679 62.2876 22.7482C59.6682 22.2284 56.9535 22.4972 54.4869 23.5205C52.0202 24.5438 49.9125 26.2757 48.4303 28.4971C46.9481 30.7185 46.1581 33.3295 46.16 36C46.1627 39.5787 47.5862 43.0099 50.1176 45.5395C52.6491 48.0691 56.0813 49.49 59.66 49.49V49.49Z" fill="#eb8361"/>
<path d="M136.16 49.49C139.674 49.4217 143.016 47.9615 145.454 45.4302C147.891 42.8989 149.224 39.5035 149.16 35.99C149.16 32.5422 147.79 29.2356 145.352 26.7976C142.914 24.3596 139.608 22.99 136.16 22.99C132.712 22.99 129.406 24.3596 126.968 26.7976C124.53 29.2356 123.16 32.5422 123.16 35.99C123.096 39.5035 124.429 42.8989 126.866 45.4302C129.304 47.9615 132.647 49.4217 136.16 49.49Z" fill="#eb8361"/>
<path d="M136.22 54.5C130.912 54.5494 125.704 55.9537 121.09 58.58C114.65 52.56 107 48.49 97 48.49C88.3797 48.695 80.1504 52.1281 73.94 58.11C69.4825 55.8221 64.5596 54.5871 59.55 54.5C55.6945 54.494 51.8743 55.2343 48.3 56.68C44.7424 58.1204 41.5014 60.2437 38.76 62.93C36.0397 65.599 33.8748 68.7801 32.39 72.29C30.9203 75.7712 30.1621 79.5113 30.16 83.29C30.22 103.29 57.94 84.71 65.76 81.39C94.76 67.82 106.61 89.08 119.05 89.08C125.14 89.08 133.75 81.33 143.05 81.33C150.68 81.33 155.76 86.33 160.14 86.33C161.975 86.3487 163.742 85.6391 165.054 84.3569C166.366 83.0747 167.116 81.3245 167.14 79.49C167.16 73 155.25 54.5 136.22 54.5Z" fill="#eb8361"/>
<path fill-rule="evenodd" clip-rule="evenodd" d="M112.94 26.82C112.94 29.9232 112.02 32.9567 110.296 35.5369C108.572 38.1171 106.121 40.1281 103.254 41.3157C100.387 42.5032 97.2326 42.8139 94.1891 42.2085C91.1455 41.6031 88.3498 40.1088 86.1555 37.9145C83.9612 35.7202 82.4669 32.9245 81.8615 29.881C81.2561 26.8374 81.5668 23.6827 82.7544 20.8157C83.9419 17.9487 85.9529 15.4983 88.5331 13.7742C91.1133 12.0502 94.1468 11.13 97.25 11.13C99.3108 11.1287 101.352 11.5336 103.256 12.3217C105.16 13.1097 106.89 14.2654 108.347 15.7226C109.805 17.1798 110.96 18.91 111.748 20.8141C112.536 22.7183 112.941 24.7592 112.94 26.82ZM118.94 89.39C123.85 89.39 130.36 85.57 130.36 77.98C130.36 64.44 115.54 47.86 97.25 47.86C92.9007 47.8626 88.5944 48.7219 84.5771 50.3888C80.5598 52.0556 76.9101 54.4974 73.8365 57.5748C70.7629 60.6521 68.3255 64.3047 66.6635 68.324C65.0015 72.3433 64.1474 76.6506 64.15 81C64.15 82.2 65.24 81.74 67.5 80.77C72.8238 78.2846 78.6247 76.988 84.5 76.97C92.02 76.97 98.95 80.75 105.17 84.14C110.28 86.88 114.88 89.39 118.94 89.39Z" fill="url(#paint0_linear)"/>
</g>
<defs>
<linearGradient id="paint0_linear" x1="118" y1="4.5" x2="64" y2="71" gradientUnits="userSpaceOnUse">
<stop offset="1" stop-color="#f15a29"/>
</linearGradient>
<clipPath id="clip0">
<rect width="195.59" height="108.81" fill="white"/>
</clipPath>
</defs>
</svg>
