<svg width="126" height="84" viewBox="0 0 126 84" fill="none" xmlns="http://www.w3.org/2000/svg">
<g clip-path="url(#clip0)">
<path d="M72.9958 56.041H37.5011C36.9908 56.0392 36.4949 56.209 36.0946 56.5227L22.0084 67.3558C21.6648 67.6179 21.2535 67.7787 20.8218 67.8198C20.3901 67.8608 19.9555 67.7804 19.5679 67.5878C19.1802 67.3952 18.8552 67.0982 18.6302 66.7308C18.4051 66.3635 18.2891 65.9407 18.2955 65.511L18.43 58.3368C18.4355 58.0345 18.3801 57.7343 18.2672 57.4535C18.1543 57.1727 17.986 56.917 17.7723 56.7014C17.5585 56.4857 17.3036 56.3144 17.0223 56.1975C16.741 56.0806 16.439 56.0205 16.134 56.0205V56.0205C12.4072 56.0205 8.83268 54.5548 6.19548 51.9453C3.55828 49.3357 2.07396 45.7957 2.06848 42.1025V15.9883C2.06848 12.2916 3.55038 8.74628 6.18817 6.1323C8.82596 3.51832 12.4036 2.0498 16.134 2.0498H73.0165C76.7469 2.0498 80.3245 3.51832 82.9623 6.1323C85.6001 8.74628 87.082 12.2916 87.082 15.9883V42.1025C87.082 43.9347 86.7175 45.7488 86.0094 47.4413C85.3012 49.1337 84.2633 50.6712 82.955 51.9658C81.6467 53.2604 80.0937 54.2866 78.3848 54.9859C76.6759 55.6852 74.8447 56.0437 72.9958 56.041V56.041Z" stroke="#f15a29" stroke-width="4" stroke-miterlimit="10"/>
<path d="M55.0726 72.2036H90.5673C91.0777 72.2018 91.5736 72.3716 91.9739 72.6853L106.05 83.5184C106.392 83.7848 106.804 83.9492 107.237 83.9924C107.671 84.0356 108.107 83.9559 108.496 83.7625C108.886 83.5691 109.211 83.27 109.435 82.9002C109.66 82.5303 109.773 82.1049 109.763 81.6736L109.639 74.4994C109.63 74.1959 109.684 73.8939 109.795 73.6113C109.907 73.3287 110.075 73.0712 110.289 72.8542C110.503 72.6371 110.759 72.465 111.042 72.348C111.325 72.2309 111.628 72.1714 111.934 72.1729C115.665 72.1729 119.243 70.7043 121.88 68.0904C124.518 65.4764 126 61.9311 126 58.2344V32.1509C126 28.4542 124.518 24.9089 121.88 22.2949C119.243 19.6809 115.665 18.2124 111.934 18.2124H55.0519C51.3215 18.2124 47.7439 19.6809 45.1061 22.2949C42.4683 24.9089 40.9865 28.4542 40.9865 32.1509V58.2651C40.9864 60.0973 41.3509 61.9114 42.0591 63.6039C42.7672 65.2963 43.8052 66.8338 45.1134 68.1284C46.4217 69.4229 47.9748 70.4492 49.6836 71.1485C51.3925 71.8478 53.2238 72.2063 55.0726 72.2036Z" fill="url(#paint0_linear)"/>
</g>
<defs>
<linearGradient id="paint0_linear" x1="41" y1="6.50011" x2="83.4932" y2="84.0038" gradientUnits="userSpaceOnUse">
<stop offset="1" stop-color="#f15a29"/>
</linearGradient>
<clipPath id="clip0">
<rect width="126" height="84" fill="white"/>
</clipPath>
</defs>
</svg>
