<svg width="186" height="127" viewBox="0 0 186 127" fill="none" xmlns="http://www.w3.org/2000/svg">
<g clip-path="url(#clip0)">
<path fill-rule="evenodd" clip-rule="evenodd" d="M0 46.56C0 80 33.24 71.62 59.59 69.38C85.94 67.14 99.33 116.68 126.73 125.06C154.36 133.52 185.94 112.87 185.94 83.79C185.94 54.71 161.27 13.55 107.62 2.70002C56 -7.72998 0 13.1 0 46.56Z" fill="#bebebe"/>
<path d="M93 99.87C84.4954 99.87 76.1818 97.3481 69.1105 92.6232C62.0392 87.8983 56.5278 81.1826 53.2732 73.3254C50.0186 65.4682 49.1671 56.8223 50.8263 48.4811C52.4854 40.1399 56.5808 32.4781 62.5944 26.4644C68.6081 20.4508 76.27 16.3554 84.6111 14.6962C92.9523 13.0371 101.598 13.8886 109.455 17.1432C117.313 20.3978 124.028 25.9092 128.753 32.9805C133.478 40.0518 136 48.3654 136 56.87C136 62.5169 134.888 68.1084 132.727 73.3254C130.566 78.5424 127.399 83.2827 123.406 87.2756C119.413 91.2685 114.672 94.4359 109.455 96.5968C104.238 98.7578 98.6469 99.87 93 99.87V99.87ZM77.28 58.87C77.73 81.07 85.62 95.87 93 95.87C100.38 95.87 108.28 81.1 108.73 58.87H77.28ZM112.73 58.87C112.41 74.51 108.42 87.74 102.54 94.66C110.603 92.6032 117.799 88.025 123.079 81.5926C128.358 75.1601 131.445 67.2097 131.89 58.9L112.73 58.87ZM54.08 58.87C54.5124 67.1902 57.5939 75.1542 62.8743 81.5985C68.1546 88.0429 75.3573 92.6301 83.43 94.69C77.55 87.77 73.56 74.54 73.25 58.9L54.08 58.87ZM112.73 54.87H131.92C131.48 46.5511 128.391 38.591 123.105 32.1521C117.819 25.7132 110.614 21.1329 102.54 19.08C108.39 26 112.38 39.25 112.7 54.9L112.73 54.87ZM77.28 54.87H108.7C108.25 32.66 100.36 17.87 92.97 17.87C85.58 17.87 77.7 32.69 77.25 54.9L77.28 54.87ZM54.08 54.87H73.28C73.59 39.22 77.58 26 83.46 19.08C75.3761 21.1289 68.1602 25.7114 62.8683 32.1567C57.5763 38.602 54.4862 46.5719 54.05 54.9L54.08 54.87Z" fill="#f15a29"/>
<path d="M128 91.52C130.769 91.52 133.476 90.6989 135.778 89.1606C138.08 87.6223 139.875 85.4358 140.934 82.8776C141.994 80.3194 142.271 77.5045 141.731 74.7888C141.191 72.073 139.857 69.5785 137.899 67.6205C135.942 65.6626 133.447 64.3292 130.731 63.789C128.016 63.2488 125.201 63.5261 122.642 64.5857C120.084 65.6453 117.898 67.4398 116.359 69.742C114.821 72.0443 114 74.7511 114 77.52C114 81.2331 115.475 84.794 118.101 87.4195C120.726 90.045 124.287 91.52 128 91.52Z" fill="url(#paint0_linear)"/>
<path d="M136.65 78.5H128.65C128.385 78.5 128.13 78.3947 127.943 78.2071C127.755 78.0196 127.65 77.7652 127.65 77.5V70.26C127.65 69.9948 127.755 69.7404 127.943 69.5529C128.13 69.3654 128.385 69.26 128.65 69.26C128.915 69.26 129.169 69.3654 129.357 69.5529C129.545 69.7404 129.65 69.9948 129.65 70.26V76.5H136.65C136.915 76.5 137.169 76.6054 137.357 76.7929C137.545 76.9804 137.65 77.2348 137.65 77.5C137.65 77.7652 137.545 78.0196 137.357 78.2071C137.169 78.3947 136.915 78.5 136.65 78.5Z" fill="white"/>
</g>
<defs>
<linearGradient id="paint0_linear" x1="126.451" y1="60.0267" x2="125.548" y2="91.3737" gradientUnits="userSpaceOnUse">
<stop offset="1" stop-color="#eb8361"/>
</linearGradient>
<clipPath id="clip0">
<rect width="185.94" height="126.97" fill="white"/>
</clipPath>
</defs>
</svg>
