<svg width="124" height="82" viewBox="0 0 124 82" fill="none" xmlns="http://www.w3.org/2000/svg">
<g clip-path="url(#clip0)">
<path d="M88.5298 1.93433H9.26116C5.21978 1.93433 1.9436 5.19507 1.9436 9.21741V54.5602C1.9436 58.5825 5.21978 61.8433 9.26116 61.8433H88.5298C92.5712 61.8433 95.8474 58.5825 95.8474 54.5602V9.21741C95.8474 5.19507 92.5712 1.93433 88.5298 1.93433Z" stroke="#f15a29" stroke-width="4" stroke-miterlimit="10"/>
<path d="M91.5132 71.438H6.27777C3.88408 71.438 1.9436 73.3693 1.9436 75.7517C1.9436 78.1342 3.88408 80.0655 6.27777 80.0655H91.5132C93.9069 80.0655 95.8474 78.1342 95.8474 75.7517C95.8474 73.3693 93.9069 71.438 91.5132 71.438Z" stroke="#f15a29" stroke-width="4" stroke-miterlimit="10"/>
<path fill-rule="evenodd" clip-rule="evenodd" d="M102.271 7.73757C115.682 6.5479 123.747 16.5779 124 29.0162C124.311 44.2207 113.621 51.6876 101.153 49.9176C91.037 48.4281 86.9944 39.8006 79.5894 39.9456C72.1843 40.0907 66.9561 46.513 58.1615 47.2481C49.5223 47.9735 39.6975 40.8451 39.6975 29.2967C39.6975 21.2011 46.0822 12.9315 56.7329 12.7187C67.2282 12.5059 70.338 20.0695 78.3843 18.8315C87.9176 17.4097 91.9602 8.60806 102.271 7.73757Z" fill="url(#paint0_linear)"/>
<path d="M103.534 22.8455C103.631 22.9487 103.706 23.0706 103.755 23.2036C103.803 23.3366 103.824 23.478 103.816 23.6193V33.4171C103.824 33.5606 103.802 33.7041 103.752 33.8388C103.701 33.9735 103.624 34.0966 103.524 34.2005C103.428 34.3022 103.309 34.3817 103.179 34.4334C103.048 34.4852 102.907 34.508 102.766 34.5004C102.623 34.5109 102.478 34.4895 102.344 34.4376C102.209 34.3858 102.088 34.3048 101.989 34.2005C101.795 33.9866 101.694 33.705 101.707 33.4171V29.2968H95.653V33.4171C95.6606 33.5606 95.6387 33.7041 95.5885 33.8388C95.5384 33.9735 95.4611 34.0966 95.3615 34.2005C95.2589 34.3029 95.1358 34.3826 95.0001 34.4342C94.8645 34.4859 94.7193 34.5084 94.5743 34.5004C94.4337 34.508 94.2931 34.4852 94.1622 34.4334C94.0313 34.3817 93.9133 34.3022 93.8163 34.2005C93.7167 34.0966 93.6394 33.9735 93.5893 33.8388C93.5391 33.7041 93.5172 33.5606 93.5248 33.4171V23.6193C93.5167 23.478 93.5375 23.3366 93.5859 23.2036C93.6343 23.0706 93.7094 22.9487 93.8066 22.8455C93.9077 22.7473 94.0281 22.6709 94.1602 22.621C94.2922 22.5711 94.4332 22.5487 94.5743 22.5553C94.7192 22.5385 94.866 22.5544 95.0039 22.6018C95.1418 22.6492 95.2672 22.7268 95.3708 22.829C95.4744 22.9312 95.5536 23.0553 95.6024 23.1921C95.6513 23.3289 95.6686 23.4749 95.653 23.6193V27.5655H101.707V23.6193C101.695 23.3345 101.796 23.0565 101.989 22.8455C102.202 22.6578 102.477 22.5542 102.762 22.5542C103.046 22.5542 103.321 22.6578 103.534 22.8455Z" fill="#fff"/>
<path d="M106.314 24.2767C106.203 24.1747 106.117 24.0501 106.06 23.9115C106.003 23.7729 105.977 23.6236 105.983 23.474C105.976 23.3242 106.002 23.1748 106.059 23.0361C106.116 22.8974 106.203 22.7728 106.314 22.6712C106.574 22.4765 106.891 22.3713 107.217 22.3713C107.543 22.3713 107.86 22.4765 108.121 22.6712C108.227 22.7764 108.312 22.9014 108.369 23.0392C108.427 23.177 108.457 23.3247 108.457 23.474C108.457 23.6232 108.427 23.7709 108.369 23.9087C108.312 24.0465 108.227 24.1716 108.121 24.2767C107.861 24.4767 107.541 24.5852 107.212 24.5852C106.884 24.5852 106.564 24.4767 106.304 24.2767H106.314ZM106.479 34.2487C106.38 34.1524 106.302 34.0361 106.252 33.9077C106.202 33.7792 106.18 33.6416 106.187 33.5039V27.0816C106.177 26.9452 106.198 26.8082 106.249 26.6809C106.299 26.5537 106.378 26.4394 106.479 26.3466C106.694 26.1834 106.957 26.095 107.227 26.095C107.497 26.095 107.76 26.1834 107.975 26.3466C108.08 26.437 108.162 26.5507 108.214 26.6784C108.266 26.8061 108.288 26.9442 108.277 27.0816V33.5233C108.283 33.6616 108.259 33.7997 108.207 33.9282C108.155 34.0567 108.076 34.1726 107.975 34.268C107.76 34.4312 107.497 34.5195 107.227 34.5195C106.957 34.5195 106.694 34.4312 106.479 34.268V34.2487Z" fill="#fff"/>
<path d="M111.007 30.8345C110.883 30.7019 110.808 30.5315 110.793 30.3509L110.171 23.8512V23.6868C110.165 23.5316 110.194 23.377 110.256 23.2346C110.318 23.0921 110.412 22.9657 110.531 22.8647C110.784 22.6489 111.111 22.5381 111.444 22.5552C111.777 22.5401 112.104 22.6506 112.358 22.8647C112.477 22.9657 112.571 23.0921 112.633 23.2346C112.695 23.377 112.724 23.5316 112.718 23.6868V23.8706L112.096 30.3509C112.089 30.5314 112.016 30.7033 111.891 30.8345C111.775 30.9415 111.622 31.0003 111.464 30.9989C111.38 31.0046 111.297 30.9929 111.218 30.9645C111.14 30.9362 111.068 30.8919 111.007 30.8345ZM110.541 34.1424C110.317 33.8996 110.192 33.5821 110.192 33.2525C110.192 32.923 110.317 32.6054 110.541 32.3627C110.656 32.2441 110.796 32.1509 110.95 32.0893C111.104 32.0276 111.269 31.9989 111.435 32.0048C111.599 31.999 111.763 32.0279 111.915 32.0896C112.068 32.1512 112.205 32.2443 112.319 32.3627C112.543 32.6054 112.667 32.923 112.667 33.2525C112.667 33.5821 112.543 33.8996 112.319 34.1424C112.205 34.2607 112.068 34.3538 111.915 34.4155C111.763 34.4772 111.599 34.506 111.435 34.5002C111.269 34.5062 111.104 34.4774 110.95 34.4158C110.796 34.3541 110.656 34.261 110.541 34.1424Z" fill="#fff"/>
</g>
<defs>
<linearGradient id="paint0_linear" x1="53" y1="-0.500106" x2="81.8521" y2="50.1733" gradientUnits="userSpaceOnUse">
<stop offset="1" stop-color="#f15a29"/>
</linearGradient>
<clipPath id="clip0">
<rect width="124" height="82" fill="white"/>
</clipPath>
</defs>
</svg>
