<svg width="85" height="91" viewBox="0 0 85 91" fill="none" xmlns="http://www.w3.org/2000/svg">
<g clip-path="url(#clip0)">
<path d="M74.684 19.083H18.6855C14.9511 19.083 11.9238 22.0944 11.9238 25.809V81.5122C11.9238 85.2269 14.9511 88.2382 18.6855 88.2382H74.684C78.4184 88.2382 81.4457 85.2269 81.4457 81.5122V25.809C81.4457 22.0944 78.4184 19.083 74.684 19.083Z" stroke="#f15a29" stroke-width="4" stroke-miterlimit="10"/>
<path d="M66.0313 6.40869H7.11076C3.1836 6.40869 0 9.5755 0 13.482V72.0918C0 75.9982 3.1836 79.165 7.11076 79.165H66.0313C69.9585 79.165 73.1421 75.9982 73.1421 72.0918V13.482C73.1421 9.5755 69.9585 6.40869 66.0313 6.40869Z" fill="url(#paint0_linear)"/>
<path d="M22.6287 45.6339L31.375 54.3341L50.8623 34.8801" stroke="white" stroke-width="4" stroke-linecap="round" stroke-linejoin="round"/>
<path d="M13.8425 1.98413V14.7616" stroke="white" stroke-width="4" stroke-miterlimit="10" stroke-linecap="round"/>
<path d="M57.8235 1.98413V14.7616" stroke="white" stroke-width="4" stroke-miterlimit="10" stroke-linecap="round"/>
</g>
<defs>
<linearGradient id="paint0_linear" x1="-8.5" y1="6.00011" x2="53" y2="98.5001" gradientUnits="userSpaceOnUse">
<stop offset="1" stop-color="#f15a29"/>
</linearGradient>
<clipPath id="clip0">
<rect width="85" height="91" fill="white"/>
</clipPath>
</defs>
</svg>
